<svg xmlns="http://www.w3.org/2000/svg" viewBox="0 0 537.6 537.6"><path d="M503.16 117.835c.42-1.262.84-1.682.84-3.364 0-7.149-5.46-11.774-12.6-11.774H462c-7.14 0-12.6 5.467-12.6 12.615 0 1.682.42 0 .84 4.205h-60.06L371.7 81.67c-6.72-13.877-24.78-25.231-39.9-25.231h-126c-15.54 0-33.18 11.354-39.9 25.231l-18.48 37.846H130.2v-18.923c0-2.523-1.68-2.103-4.2-2.103H42c-2.52 0-4.2-.421-4.2 2.103v16.821c-21 0-37.8 16.821-37.8 37.846v285.951c0 21.026 16.8 39.949 37.8 39.949h462c21 0 37.8-18.923 37.8-39.949v-285.95c0-19.344-15.12-35.744-34.44-37.426zM201.6 94.706c0-2.523 1.68-4.205 4.2-4.205h126c2.52 0 4.2 1.682 4.2 4.205v16.821c0 2.523-1.68 4.205-4.2 4.205h-126c-2.52 0-4.2-1.682-4.2-4.205V94.706zM58.8 201.938c-13.86 0-25.2-11.354-25.2-25.231 0-13.877 11.34-25.231 25.2-25.231S84 162.83 84 176.707c0 13.877-11.34 25.231-25.2 25.231zm33.6 21.026c-7.14 0-12.6-5.467-12.6-12.615 0-7.149 5.46-12.615 12.6-12.615s12.6 5.467 12.6 12.615c0 7.148-5.46 12.615-12.6 12.615zm176.4 222.873c-81.06 0-147-66.021-147-147.181s65.94-147.181 147-147.181 147 66.021 147 147.181-65.94 147.181-147 147.181z"/><path d="M268.8 180.912c-64.68 0-117.6 52.985-117.6 117.745s52.92 117.745 117.6 117.745 117.6-52.985 117.6-117.745-52.92-117.745-117.6-117.745zm0 180.822c-34.86 0-63-28.175-63-63.077s28.14-63.077 63-63.077 63 28.175 63 63.077-28.14 63.077-63 63.077z"/></svg>